# xmcd
#
# Track frame offsets:
#	150
#	14212
#	29918
#	52719
#	70089
#	88401
#	110533
#	129461
#	153322
#	171985
#	191455
#	217590
#	234477
#	254926
#	274718
#	291583
#	305600
#	330293
#
# Disc length: 4729 seconds
#
# Revision: 1
# Processed by: cddbd v1.4PL0 Copyright (c) Steve Scherf et al.
# Submitted via: audiograbber 1.82.01
#
DISCID=0f127712
DTITLE=d¿em - Byæ albo mieæ
DYEAR=1900
DGENRE=
TTITLE0=Byc albo miec
TTITLE1=krewny judasza
TTITLE2=kruka glos
TTITLE3=chce ci cos powiedziec
TTITLE4=chociaz raz, jeden raz
TTITLE5=niebo na wyciagniecie reki
TTITLE6=za plecami
TTITLE7=popiolu smak
TTITLE8=ukryj mnie
TTITLE9=zakladnik
TTITLE10=geronimo
TTITLE11=boze daj dom
TTITLE12=jak malowany ptak
TTITLE13=dzien w ktorym peklo niebo
TTITLE14=wokol sami lunatycy
TTITLE15=czlowieku co sie z Toba dzieje ?
TTITLE16=whisky
TTITLE17=czerwony jak cegla
EXTD=
EXTT0=
EXTT1=
EXTT2=
EXTT3=
EXTT4=
EXTT5=
EXTT6=
EXTT7=
EXTT8=
EXTT9=
EXTT10=
EXTT11=
EXTT12=
EXTT13=
EXTT14=
EXTT15=
EXTT16=
EXTT17=
PLAYORDER=
